<?xml version="1.0" standalone="no"?>
<!DOCTYPE svg PUBLIC "-//W3C//DTD SVG 20010904//EN"
 "http://www.w3.org/TR/2001/REC-SVG-20010904/DTD/svg10.dtd">
<svg version="1.0" xmlns="http://www.w3.org/2000/svg"
 width="273.000000pt" height="185.000000pt" viewBox="0 0 273.000000 185.000000"
 preserveAspectRatio="xMidYMid meet">

<g transform="translate(0.000000,185.000000) scale(0.100000,-0.100000)"
fill="#000000" stroke="none">
<path d="M0 925 l0 -925 601 0 c477 0 599 3 593 13 -6 9 -4 9 7 0 10 -10 111
-13 432 -13 l419 0 -7 32 c-4 18 -27 95 -51 171 -24 75 -44 150 -44 166 0 40
23 101 66 174 115 194 154 299 154 419 0 78 -10 88 -83 88 -33 0 -51 -6 -71
-25 -15 -14 -32 -25 -37 -25 -6 0 -9 -6 -6 -12 8 -24 -12 -49 -31 -39 -17 9
-24 11 -42 11 -5 0 -10 5 -10 11 0 7 9 9 21 6 22 -6 79 36 79 59 0 6 6 14 13
17 16 6 21 77 7 77 -6 0 -10 -8 -10 -18 0 -16 -5 -18 -37 -13 -28 5 -38 12
-37 24 1 9 -5 17 -13 17 -9 0 -30 9 -48 20 -28 17 -37 19 -61 9 -24 -10 -26
-13 -10 -17 10 -2 31 -11 46 -21 l27 -16 -53 -1 c-28 -1 -66 -8 -83 -17 -40
-20 -39 -8 1 32 33 33 32 57 -2 26 -15 -14 -23 -15 -34 -6 -10 9 -35 9 -98 2
-45 -6 -122 -11 -171 -12 -57 -1 -87 -5 -87 -13 0 -6 -10 -16 -21 -21 -25 -11
-24 -31 0 -27 14 2 16 -5 13 -37 -5 -53 -33 -60 -81 -20 -19 16 -41 29 -48 29
-7 0 -16 12 -19 28 -9 36 -20 42 -76 42 -27 0 -48 5 -48 10 0 6 -7 10 -15 10
-21 0 -85 32 -85 43 0 4 -16 23 -35 41 -19 19 -35 43 -35 54 0 12 -6 25 -14
29 -8 4 -16 22 -19 38 l-4 30 -2 -33 c0 -18 -5 -31 -9 -28 -5 3 -9 -10 -10
-29 -1 -19 -8 -48 -17 -64 -19 -37 -19 -70 0 -95 8 -11 15 -29 15 -39 0 -20 0
-20 -21 -1 -20 18 -21 25 -16 127 11 184 47 284 136 374 119 121 271 172 515
173 75 0 104 4 116 15 15 13 19 14 29 1 9 -10 21 -12 48 -5 42 9 57 4 49 -18
-5 -12 -1 -14 14 -10 13 3 20 0 20 -9 0 -19 9 -18 33 4 15 12 21 14 24 5 3 -7
13 -13 24 -13 13 0 17 -5 12 -16 -5 -14 -1 -15 25 -9 25 5 31 3 27 -7 -3 -8 7
-18 24 -26 18 -8 28 -19 25 -26 -5 -13 18 -29 43 -31 7 0 13 -5 14 -10 1 -17
31 -45 47 -45 9 0 12 -3 9 -7 -4 -3 3 -20 16 -37 48 -64 87 -138 108 -201 12
-38 26 -65 34 -65 20 0 27 -17 13 -32 -9 -9 -13 -58 -13 -173 0 -140 -3 -170
-24 -235 -26 -84 -62 -159 -131 -275 -85 -141 -85 -157 -2 -397 l47 -138 328
0 327 0 0 925 0 925 -1365 0 -1365 0 0 -925z m1705 205 c3 -5 5 -10 3 -10 -56
-7 -84 -14 -86 -21 -2 -5 -25 -9 -50 -8 -43 0 -45 1 -22 11 26 11 116 36 137
37 6 1 15 -3 18 -9z m-305 -30 c0 -5 -4 -10 -9 -10 -6 0 -13 5 -16 10 -3 6 1
10 9 10 9 0 16 -4 16 -10z m60 -19 c0 -10 -51 -33 -58 -27 -7 8 41 45 50 39 5
-2 8 -8 8 -12z m100 -80 c-1 -9 -11 -28 -23 -43 -21 -26 -24 -27 -45 -12 -28
19 -24 36 9 44 15 4 23 12 21 22 -2 12 3 15 18 11 11 -3 20 -13 20 -22z m-65
9 c3 -5 0 -10 -9 -10 -8 0 -23 -3 -33 -7 -16 -6 -16 -5 -4 10 15 19 37 22 46
7z m81 -54 c0 -13 -4 -22 -8 -19 -11 6 -10 43 1 43 5 0 8 -11 7 -24z m-26 -26
c0 -5 -4 -10 -10 -10 -5 0 -10 5 -10 10 0 6 5 10 10 10 6 0 10 -4 10 -10z
m-686 -84 c-5 -39 -8 -102 -6 -139 1 -50 -2 -67 -11 -64 -19 6 -20 96 -2 165
10 35 15 76 11 93 -4 21 -2 28 5 23 8 -5 9 -28 3 -78z m-114 -404 c-14 -2 -34
-11 -45 -20 -20 -17 -20 -17 -3 4 13 15 15 23 6 32 -8 8 0 8 28 -1 34 -11 36
-12 14 -15z m10 -125 c13 -28 17 -55 13 -91 -3 -40 0 -58 16 -83 26 -42 73
-54 216 -57 82 -2 118 -7 140 -20 17 -10 21 -14 10 -10 -11 5 -83 11 -160 14
-86 4 -151 12 -168 20 -41 20 -67 77 -67 147 0 40 -7 71 -21 97 -11 21 -15 35
-8 31 6 -4 19 -26 29 -48z"/>
<path d="M1400 1621 c0 -17 21 -24 33 -12 9 9 7 10 -7 5 -13 -5 -17 -4 -12 4
4 7 2 12 -3 12 -6 0 -11 -4 -11 -9z"/>
<path d="M1581 1559 c-22 -45 -26 -69 -13 -69 8 0 43 102 37 108 -2 2 -13 -15
-24 -39z"/>
<path d="M1432 1538 c6 -18 28 -21 28 -4 0 9 -7 16 -16 16 -9 0 -14 -5 -12
-12z"/>
<path d="M1709 1533 c-13 -16 -12 -17 4 -4 9 7 17 15 17 17 0 8 -8 3 -21 -13z"/>
<path d="M925 1530 c-8 -13 3 -30 20 -30 19 0 26 27 9 34 -21 8 -22 8 -29 -4z"/>
<path d="M1306 1515 c27 -20 51 -20 34 0 -7 8 -22 15 -33 15 -20 0 -20 0 -1
-15z"/>
<path d="M1377 1491 c-4 -17 -3 -21 5 -13 5 5 8 16 6 23 -3 8 -7 3 -11 -10z"/>
<path d="M1450 1480 c-18 -43 -7 -47 12 -5 8 19 12 35 8 35 -4 0 -13 -14 -20
-30z"/>
<path d="M1122 1450 c0 -14 2 -19 5 -12 2 6 2 18 0 25 -3 6 -5 1 -5 -13z"/>
<path d="M1335 1430 c-18 -8 -17 -9 7 -9 15 -1 30 4 33 9 7 12 -12 12 -40 0z"/>
<path d="M1790 1410 c6 -11 13 -20 16 -20 2 0 0 9 -6 20 -6 11 -13 20 -16 20
-2 0 0 -9 6 -20z"/>
<path d="M1211 1404 c0 -11 3 -14 6 -6 3 7 2 16 -1 19 -3 4 -6 -2 -5 -13z"/>
<path d="M1130 1403 c0 -4 5 -15 10 -23 8 -13 10 -13 10 2 0 9 -4 20 -10 23
-5 3 -10 3 -10 -2z"/>
<path d="M1268 1373 c7 -3 16 -2 19 1 4 3 -2 6 -13 5 -11 0 -14 -3 -6 -6z"/>
<path d="M1806 1349 c-3 -17 -6 -42 -6 -54 0 -12 -9 -34 -21 -48 -18 -23 -25
-26 -63 -21 -27 4 -52 1 -69 -7 -24 -13 -19 -14 54 -14 l81 0 14 34 c14 34 31
141 22 141 -3 0 -8 -14 -12 -31z"/>
<path d="M1331 1365 c0 -5 6 -21 14 -35 8 -14 14 -20 14 -15 0 6 -6 21 -14 35
-8 14 -14 21 -14 15z"/>
<path d="M1940 1346 c0 -9 5 -16 10 -16 6 0 10 4 10 9 0 6 -4 13 -10 16 -5 3
-10 -1 -10 -9z"/>
<path d="M1030 1342 c0 -10 60 -36 67 -29 2 3 -9 13 -26 21 -34 18 -41 19 -41
8z"/>
<path d="M1496 1321 c-10 -15 4 -18 84 -20 41 -1 88 -3 103 -3 16 0 36 7 45
17 16 17 15 17 -13 10 -34 -9 -189 -10 -204 -1 -5 4 -12 2 -15 -3z"/>
<path d="M1881 1304 c0 -11 3 -14 6 -6 3 7 2 16 -1 19 -3 4 -6 -2 -5 -13z"/>
<path d="M1270 1306 c0 -2 15 -14 34 -25 34 -21 86 -28 86 -12 0 5 -10 9 -22
8 -13 0 -40 7 -60 17 -21 9 -38 14 -38 12z"/>
<path d="M1227 1289 c7 -7 15 -10 18 -7 3 3 -2 9 -12 12 -14 6 -15 5 -6 -5z"/>
<path d="M1440 1291 c-23 -6 -23 -8 -6 -14 13 -5 25 -2 35 8 16 16 11 17 -29
6z"/>
<path d="M1120 1280 c0 -15 31 -32 86 -50 58 -17 60 -22 12 -34 -36 -8 -37
-36 -3 -36 18 0 31 9 43 30 9 16 27 32 39 35 13 3 23 10 23 16 0 7 -10 9 -27
4 -43 -12 -74 -7 -125 19 -27 12 -48 20 -48 16z"/>
<path d="M1705 1280 c3 -5 10 -10 16 -10 5 0 9 5 9 10 0 6 -7 10 -16 10 -8 0
-12 -4 -9 -10z"/>
<path d="M1071 1266 c-16 -19 -9 -29 19 -31 23 -2 25 5 7 29 -12 16 -14 16
-26 2z"/>
<path d="M1923 1268 c-34 -11 -45 -28 -18 -28 20 0 65 22 65 32 0 10 -5 9 -47
-4z"/>
<path d="M1570 1260 c0 -5 7 -10 15 -10 8 0 15 5 15 10 0 6 -7 10 -15 10 -8 0
-15 -4 -15 -10z"/>
<path d="M1470 1250 c0 -5 7 -10 16 -10 8 0 12 5 9 10 -3 6 -10 10 -16 10 -5
0 -9 -4 -9 -10z"/>
<path d="M1897 1188 c13 -25 18 -29 21 -16 2 10 -3 25 -12 33 -24 24 -28 17
-9 -17z"/>
<path d="M1470 1190 c-8 -5 -38 -10 -66 -10 -33 0 -56 -5 -64 -15 -7 -8 -23
-15 -36 -15 -12 0 -26 -4 -29 -10 -9 -14 32 -13 58 2 12 7 48 15 81 19 32 4
66 14 74 23 18 18 6 21 -18 6z"/>
</g>
</svg>
